<mxfile host="app.diagrams.net" modified="2024-06-28T17:29:29.386Z" agent="Mozilla/5.0 (Windows NT 10.0; Win64; x64) AppleWebKit/537.36 (KHTML, like Gecko) Chrome/112.0.0.0 Safari/537.36" etag="VC1zHYgMJwpSqZf-0mKx" version="24.6.4" type="device">
  <diagram name="Page-1" id="8rLU2vYCWD3qIPnNyLYt">
    <mxGraphModel dx="1050" dy="581" grid="1" gridSize="10" guides="1" tooltips="1" connect="1" arrows="1" fold="1" page="1" pageScale="1" pageWidth="850" pageHeight="1100" math="0" shadow="0">
      <root>
        <mxCell id="0" />
        <mxCell id="1" parent="0" />
        <mxCell id="t3n_oALA9UTZZNPGSJct-4" style="edgeStyle=orthogonalEdgeStyle;rounded=0;orthogonalLoop=1;jettySize=auto;html=1;entryX=0;entryY=0.5;entryDx=0;entryDy=0;" edge="1" parent="1" source="t3n_oALA9UTZZNPGSJct-2" target="t3n_oALA9UTZZNPGSJct-3">
          <mxGeometry relative="1" as="geometry" />
        </mxCell>
        <mxCell id="t3n_oALA9UTZZNPGSJct-2" value="Audio recording&lt;div&gt;of the query&lt;/div&gt;" style="ellipse;whiteSpace=wrap;html=1;fillColor=#d5e8d4;strokeColor=#82b366;" vertex="1" parent="1">
          <mxGeometry x="110" y="260" width="120" height="80" as="geometry" />
        </mxCell>
        <mxCell id="t3n_oALA9UTZZNPGSJct-6" style="edgeStyle=orthogonalEdgeStyle;rounded=0;orthogonalLoop=1;jettySize=auto;html=1;entryX=0;entryY=0.5;entryDx=0;entryDy=0;" edge="1" parent="1" source="t3n_oALA9UTZZNPGSJct-3" target="t3n_oALA9UTZZNPGSJct-5">
          <mxGeometry relative="1" as="geometry" />
        </mxCell>
        <mxCell id="t3n_oALA9UTZZNPGSJct-3" value="Whisper transcribes the query to text" style="rounded=0;whiteSpace=wrap;html=1;fillColor=#dae8fc;strokeColor=#6c8ebf;" vertex="1" parent="1">
          <mxGeometry x="290" y="270" width="120" height="60" as="geometry" />
        </mxCell>
        <mxCell id="t3n_oALA9UTZZNPGSJct-8" style="edgeStyle=orthogonalEdgeStyle;rounded=0;orthogonalLoop=1;jettySize=auto;html=1;entryX=0;entryY=0.5;entryDx=0;entryDy=0;" edge="1" parent="1" source="t3n_oALA9UTZZNPGSJct-5" target="t3n_oALA9UTZZNPGSJct-7">
          <mxGeometry relative="1" as="geometry" />
        </mxCell>
        <mxCell id="t3n_oALA9UTZZNPGSJct-5" value="&lt;b&gt;NER &lt;/b&gt;for extracting the &lt;b&gt;main topic&lt;/b&gt;" style="rounded=0;whiteSpace=wrap;html=1;fillColor=#f8cecc;strokeColor=#b85450;" vertex="1" parent="1">
          <mxGeometry x="470" y="270" width="120" height="60" as="geometry" />
        </mxCell>
        <mxCell id="t3n_oALA9UTZZNPGSJct-10" style="edgeStyle=orthogonalEdgeStyle;rounded=0;orthogonalLoop=1;jettySize=auto;html=1;entryX=0;entryY=0.5;entryDx=0;entryDy=0;" edge="1" parent="1" source="t3n_oALA9UTZZNPGSJct-7" target="t3n_oALA9UTZZNPGSJct-9">
          <mxGeometry relative="1" as="geometry">
            <Array as="points">
              <mxPoint x="710" y="380" />
              <mxPoint x="60" y="380" />
              <mxPoint x="60" y="460" />
            </Array>
          </mxGeometry>
        </mxCell>
        <mxCell id="t3n_oALA9UTZZNPGSJct-12" style="edgeStyle=orthogonalEdgeStyle;rounded=0;orthogonalLoop=1;jettySize=auto;html=1;entryX=0;entryY=0.5;entryDx=0;entryDy=0;" edge="1" parent="1" source="t3n_oALA9UTZZNPGSJct-7" target="t3n_oALA9UTZZNPGSJct-11">
          <mxGeometry relative="1" as="geometry">
            <Array as="points">
              <mxPoint x="710" y="380" />
              <mxPoint x="60" y="380" />
              <mxPoint x="60" y="550" />
            </Array>
          </mxGeometry>
        </mxCell>
        <mxCell id="t3n_oALA9UTZZNPGSJct-7" value="Main topic is sought in Wikipedia" style="rounded=0;whiteSpace=wrap;html=1;fillColor=#dae8fc;strokeColor=#6c8ebf;" vertex="1" parent="1">
          <mxGeometry x="650" y="270" width="120" height="60" as="geometry" />
        </mxCell>
        <mxCell id="t3n_oALA9UTZZNPGSJct-15" style="edgeStyle=orthogonalEdgeStyle;rounded=0;orthogonalLoop=1;jettySize=auto;html=1;entryX=0;entryY=0.5;entryDx=0;entryDy=0;" edge="1" parent="1" source="t3n_oALA9UTZZNPGSJct-9" target="t3n_oALA9UTZZNPGSJct-13">
          <mxGeometry relative="1" as="geometry" />
        </mxCell>
        <mxCell id="t3n_oALA9UTZZNPGSJct-9" value="&lt;b&gt;Text &lt;/b&gt;extraction from Wikipedia" style="rounded=0;whiteSpace=wrap;html=1;fillColor=#dae8fc;strokeColor=#6c8ebf;" vertex="1" parent="1">
          <mxGeometry x="100" y="430" width="120" height="60" as="geometry" />
        </mxCell>
        <mxCell id="t3n_oALA9UTZZNPGSJct-16" style="edgeStyle=orthogonalEdgeStyle;rounded=0;orthogonalLoop=1;jettySize=auto;html=1;entryX=0;entryY=0.5;entryDx=0;entryDy=0;" edge="1" parent="1" source="t3n_oALA9UTZZNPGSJct-11" target="t3n_oALA9UTZZNPGSJct-14">
          <mxGeometry relative="1" as="geometry" />
        </mxCell>
        <mxCell id="t3n_oALA9UTZZNPGSJct-11" value="&lt;b&gt;Image &lt;/b&gt;extraction from Wikipedia" style="rounded=0;whiteSpace=wrap;html=1;fillColor=#dae8fc;strokeColor=#6c8ebf;" vertex="1" parent="1">
          <mxGeometry x="100" y="520" width="120" height="60" as="geometry" />
        </mxCell>
        <mxCell id="t3n_oALA9UTZZNPGSJct-17" style="edgeStyle=orthogonalEdgeStyle;rounded=0;orthogonalLoop=1;jettySize=auto;html=1;entryX=0;entryY=0.5;entryDx=0;entryDy=0;" edge="1" parent="1" source="t3n_oALA9UTZZNPGSJct-13" target="t3n_oALA9UTZZNPGSJct-19">
          <mxGeometry relative="1" as="geometry">
            <mxPoint x="420" y="500" as="targetPoint" />
          </mxGeometry>
        </mxCell>
        <mxCell id="t3n_oALA9UTZZNPGSJct-13" value="&lt;b&gt;LLM answers&lt;/b&gt; the query with the &lt;b&gt;text &lt;/b&gt;as context" style="rounded=0;whiteSpace=wrap;html=1;fillColor=#f8cecc;strokeColor=#b85450;" vertex="1" parent="1">
          <mxGeometry x="260" y="430" width="120" height="60" as="geometry" />
        </mxCell>
        <mxCell id="t3n_oALA9UTZZNPGSJct-20" style="edgeStyle=orthogonalEdgeStyle;rounded=0;orthogonalLoop=1;jettySize=auto;html=1;entryX=0;entryY=0.5;entryDx=0;entryDy=0;" edge="1" parent="1" source="t3n_oALA9UTZZNPGSJct-14" target="t3n_oALA9UTZZNPGSJct-19">
          <mxGeometry relative="1" as="geometry" />
        </mxCell>
        <mxCell id="t3n_oALA9UTZZNPGSJct-14" value="&lt;b&gt;LLM answers&lt;/b&gt; the query with the &lt;b&gt;image &lt;/b&gt;as context" style="rounded=0;whiteSpace=wrap;html=1;fillColor=#f8cecc;strokeColor=#b85450;" vertex="1" parent="1">
          <mxGeometry x="260" y="520" width="120" height="60" as="geometry" />
        </mxCell>
        <mxCell id="t3n_oALA9UTZZNPGSJct-23" style="edgeStyle=orthogonalEdgeStyle;rounded=0;orthogonalLoop=1;jettySize=auto;html=1;entryX=0;entryY=0.5;entryDx=0;entryDy=0;" edge="1" parent="1" source="t3n_oALA9UTZZNPGSJct-19" target="t3n_oALA9UTZZNPGSJct-21">
          <mxGeometry relative="1" as="geometry" />
        </mxCell>
        <mxCell id="t3n_oALA9UTZZNPGSJct-24" style="edgeStyle=orthogonalEdgeStyle;rounded=0;orthogonalLoop=1;jettySize=auto;html=1;entryX=0;entryY=0.5;entryDx=0;entryDy=0;" edge="1" parent="1" source="t3n_oALA9UTZZNPGSJct-19" target="t3n_oALA9UTZZNPGSJct-25">
          <mxGeometry relative="1" as="geometry">
            <mxPoint x="500" y="590" as="targetPoint" />
          </mxGeometry>
        </mxCell>
        <mxCell id="t3n_oALA9UTZZNPGSJct-19" value="&lt;div&gt;&lt;span style=&quot;background-color: initial;&quot;&gt;Text answer&lt;/span&gt;&lt;br&gt;&lt;/div&gt;&lt;div&gt;+&lt;/div&gt;&lt;div&gt;Image answer&lt;/div&gt;" style="rounded=0;whiteSpace=wrap;html=1;fillColor=#dae8fc;strokeColor=#6c8ebf;" vertex="1" parent="1">
          <mxGeometry x="440" y="470" width="120" height="60" as="geometry" />
        </mxCell>
        <mxCell id="t3n_oALA9UTZZNPGSJct-27" style="edgeStyle=orthogonalEdgeStyle;rounded=0;orthogonalLoop=1;jettySize=auto;html=1;entryX=1;entryY=0.5;entryDx=0;entryDy=0;" edge="1" parent="1" source="t3n_oALA9UTZZNPGSJct-21" target="t3n_oALA9UTZZNPGSJct-25">
          <mxGeometry relative="1" as="geometry">
            <Array as="points">
              <mxPoint x="790" y="440" />
              <mxPoint x="790" y="620" />
            </Array>
          </mxGeometry>
        </mxCell>
        <mxCell id="t3n_oALA9UTZZNPGSJct-21" value="TTS converts the text answer to image" style="rounded=0;whiteSpace=wrap;html=1;fillColor=#dae8fc;strokeColor=#6c8ebf;" vertex="1" parent="1">
          <mxGeometry x="630" y="410" width="130" height="60" as="geometry" />
        </mxCell>
        <mxCell id="t3n_oALA9UTZZNPGSJct-22" value="Final answer" style="text;html=1;align=center;verticalAlign=middle;whiteSpace=wrap;rounded=0;fontSize=14;" vertex="1" parent="1">
          <mxGeometry x="455" y="445" width="90" height="30" as="geometry" />
        </mxCell>
        <mxCell id="t3n_oALA9UTZZNPGSJct-25" value="Answer formatted as text and audio" style="ellipse;whiteSpace=wrap;html=1;fillColor=#d5e8d4;strokeColor=#82b366;" vertex="1" parent="1">
          <mxGeometry x="630" y="580" width="120" height="80" as="geometry" />
        </mxCell>
      </root>
    </mxGraphModel>
  </diagram>
</mxfile>
